<svg width="106" height="60" fill="none" xmlns="http://www.w3.org/2000/svg"><path d="M53.42 27.4a2.95 2.95 0 0 1-.6-1.98v-2.88c0-.89.2-1.56.6-2.02.4-.46 1.1-.69 2.07-.68.91 0 1.57.2 1.95.58.42.5.63 1.11.58 1.73v.67h-1.64v-.68c0-.23-.01-.45-.05-.67a.65.65 0 0 0-.23-.4.95.95 0 0 0-.6-.16 1 1 0 0 0-.62.17.77.77 0 0 0-.28.44 3.33 3.33 0 0 0-.06.7v3.5c-.03.35.05.68.2.99a.77.77 0 0 0 .34.24.9.9 0 0 0 .42.05.9.9 0 0 0 .58-.15.7.7 0 0 0 .25-.43c.03-.23.05-.47.05-.7V25h1.64v.65a2.64 2.64 0 0 1-.57 1.81c-.38.43-1.02.64-1.96.64s-1.66-.23-2.06-.7Zm6.84.04c-.42-.45-.63-1.1-.63-1.97v-3.03c0-.86.21-1.5.63-1.95.41-.44 1.1-.66 2.08-.66.96 0 1.65.22 2.06.66.42.44.63 1.09.63 1.95v3.03c0 .86-.21 1.51-.63 1.96-.42.46-1.1.68-2.06.68s-1.67-.23-2.08-.67Zm2.84-.73c.15-.28.22-.59.2-.9V22.1a1.65 1.65 0 0 0-.2-.88.78.78 0 0 0-.33-.24.9.9 0 0 0-.43-.05.92.92 0 0 0-.44.05.79.79 0 0 0-.33.24c-.16.27-.22.58-.2.88v3.73c-.02.3.04.62.2.9.09.1.2.17.34.22a1.16 1.16 0 0 0 .84 0c.14-.05.25-.13.35-.22v-.02Zm3.9-6.79h1.77l1.33 5.6 1.36-5.6h1.72l.17 8.08h-1.27l-.14-5.61-1.3 5.61H69.6l-1.36-5.63-.12 5.63h-1.29l.16-8.08Zm8.33 0h2.75c1.59 0 2.38.77 2.38 2.3 0 1.46-.83 2.2-2.5 2.2h-.94V28h-1.7l.01-8.08Zm2.35 3.45a1.32 1.32 0 0 0 .93-.25c.2-.27.29-.6.25-.91a2.52 2.52 0 0 0-.08-.74.6.6 0 0 0-.13-.22.7.7 0 0 0-.21-.16 1.76 1.76 0 0 0-.76-.13h-.66v2.41h.66Zm5.23-3.45h1.82L86.61 28h-1.59l-.37-1.86h-1.63L82.64 28h-1.6l1.87-8.08Zm1.56 5.28-.64-3.39-.63 3.4h1.27Zm3.65-5.28h1.19l2.27 4.61v-4.6H93V28h-1.13l-2.29-4.81V28h-1.46v-8.08Zm8.17 5-1.89-4.99H96l1.15 3.2 1.08-3.2h1.56l-1.87 5V28H96.3v-3.08Zm-40.24 6.61v.42h-1.39v3.29h-.58v-3.29h-1.4v-.42h3.37Zm4.34 3.7h-.45a.2.2 0 0 1-.12-.03.2.2 0 0 1-.08-.08l-.4-.88h-1.92l-.4.88a.24.24 0 0 1-.06.1.2.2 0 0 1-.13.03h-.45l1.7-3.7h.6l1.71 3.69Zm-2.81-1.37h1.6l-.68-1.5a2.7 2.7 0 0 1-.12-.36l-.07.2-.06.16-.67 1.5Zm5.74 1.01h.32a1.91 1.91 0 0 0 .52-.1l.22-.1v-.83h-.67a.14.14 0 0 1-.1-.03.09.09 0 0 1-.02-.03.07.07 0 0 1-.01-.04v-.28h1.32v1.42a2.58 2.58 0 0 1-.72.3 3.05 3.05 0 0 1-.92.1 2.59 2.59 0 0 1-.86-.14 2.09 2.09 0 0 1-.68-.39 1.79 1.79 0 0 1-.43-.58 1.85 1.85 0 0 1-.16-.77 1.92 1.92 0 0 1 .15-.78c.1-.22.25-.42.44-.58.2-.17.43-.3.68-.39a2.82 2.82 0 0 1 1.38-.1 2.37 2.37 0 0 1 .75.24c.1.05.2.12.3.19l-.17.23a.14.14 0 0 1-.05.05.17.17 0 0 1-.08.02.22.22 0 0 1-.1-.03 2.11 2.11 0 0 1-.18-.09 1.5 1.5 0 0 0-.22-.1 2.13 2.13 0 0 0-.32-.08 2.61 2.61 0 0 0-.43-.03 2 2 0 0 0-.65.1c-.2.07-.36.17-.5.3a1.29 1.29 0 0 0-.32.45 1.73 1.73 0 0 0 0 1.24 1.45 1.45 0 0 0 1.5.83Zm5.42-.06h1.85v.43h-2.42v-3.7h.58l-.01 3.27Zm3.78.43h-.58v-3.7h.58v3.7Zm2.16-3.69a.28.28 0 0 1 .09.07l2.48 2.79a.88.88 0 0 1 0-.13v-2.76h.5v3.72h-.28a.28.28 0 0 1-.13-.02.33.33 0 0 1-.09-.07l-2.48-2.8v2.89h-.49v-3.7h.4Zm7.36-.02v.4h-2.06v1.23h1.67v.4h-1.67v1.26h2.06v.4h-2.66v-3.69h2.66ZM21.16 8.66l25.8 6.32v22.16l-25.8-6.32V8.66Zm-1.65-1.9V31.9l29.1 7.14V13.9L19.5 6.78Z" fill="#AFB1B8"/><path d="M35.1 50.7 6 43.54V18.43l29.1 7.14v25.12Z" fill="#AFB1B8"/><path d="m19.99 8.37 25.46 6.25-10.83 9.35-25.46-6.25 10.83-9.35Zm-.48-1.6L6 18.43l29.1 7.14L48.6 13.9 19.5 6.77Zm17.23 42.5 11.87-10.24-11.87-2.91v13.16Z" fill="#AFB1B8"/></svg>