<svg width="106" height="60" fill="none" xmlns="http://www.w3.org/2000/svg"><path d="M26.76 44.73c.24.28.37.63.36.98a1.43 1.43 0 0 1-.13.68 1.56 1.56 0 0 1-.43.56 2.63 2.63 0 0 1-1.66.45H22v-6.2h2.84a2.6 2.6 0 0 1 1.58.42c.18.14.33.32.42.52.1.2.14.42.13.64.02.34-.1.67-.33.94-.22.25-.52.42-.86.49.38.06.73.25.98.53Zm-3.4-.93h1.2c.28.02.56-.05.78-.2a.74.74 0 0 0 .2-.28.68.68 0 0 0 .06-.33.7.7 0 0 0-.05-.33.76.76 0 0 0-.2-.27 1.25 1.25 0 0 0-.8-.21h-1.2v1.62Zm2.1 2.38a.78.78 0 0 0 .22-.29.71.71 0 0 0 .07-.34.72.72 0 0 0-.07-.35.79.79 0 0 0-.23-.29 1.34 1.34 0 0 0-.82-.22h-1.28v1.7h1.3c.28.02.57-.06.8-.21Zm7.11 1.22-1.58-2.42h-.6v2.42h-1.36v-6.2h2.58a2.7 2.7 0 0 1 1.8.53c.35.34.57.78.6 1.25a1.86 1.86 0 0 1-.41 1.31 2.15 2.15 0 0 1-1.23.63l1.68 2.48h-1.48Zm-2.18-3.27h1.12c.77 0 1.16-.3 1.16-.93a.85.85 0 0 0-.07-.38.92.92 0 0 0-.22-.32 1.28 1.28 0 0 0-.87-.25h-1.13l.01 1.88Zm9.62 2.02H37.3l-.48 1.25h-1.43l2.5-6.13h1.54l2.48 6.13h-1.43l-.47-1.25Zm-.36-.94-1-2.61-.98 2.61h1.98Zm9.67 2.19h-1.35l-3.03-4.21v4.2H43.6V41.2h1.35l3.03 4.24V41.2h1.35v6.2Zm7.71-1.48c-.28.46-.7.84-1.22 1.09a4.29 4.29 0 0 1-1.9.39h-2.4v-6.2h2.4a4.38 4.38 0 0 1 1.9.39c.52.24.94.61 1.22 1.08a3.36 3.36 0 0 1 0 3.24Zm-1.54-.15a2.16 2.16 0 0 0 .6-1.48c0-.54-.22-1.07-.6-1.48a2.49 2.49 0 0 0-1.7-.53h-.93v4.01h.93a2.49 2.49 0 0 0 1.7-.52Zm-14.63-39s17.43 6.03 17.07 14.75v14.75S40.5 30.24 40.85 21.52V6.77Zm32.6 26.05a25.3 25.3 0 0 1 11.08-3.74v-4.62a22.42 22.42 0 0 0-11.08 8.36Z" fill="#AFB1B8"/><path d="M71.48 34.21a23.1 23.1 0 0 1 13.06-10.72V10.2s-24.84 8.58-24.31 21V52.2s1.1-.38 2.85-1.1c0-.67 0-1.35.08-2.03a21.27 21.27 0 0 1 8.32-14.86Z" fill="#AFB1B8"/><path d="M69.12 42.01c.13-1.45.42-2.9.87-4.3a19.43 19.43 0 0 0-5.26 12.7 74.76 74.76 0 0 0 4.78-2.31c-.44-2-.57-4.05-.39-6.09Zm.99.08a19.05 19.05 0 0 0 .3 5.5c6.79-3.71 14.42-9.46 14.12-16.4v-.6a23.2 23.2 0 0 0-12.91 5.52 19.26 19.26 0 0 0-1.51 5.98Z" fill="#AFB1B8"/></svg>