<svg width="106" height="60" fill="none" xmlns="http://www.w3.org/2000/svg"><path d="m36.4 49.1.05.01a.12.12 0 0 1 .04.02l.22.21c-.17.17-.38.3-.61.4a2.39 2.39 0 0 1-.87.14 2.3 2.3 0 0 1-.82-.13 1.8 1.8 0 0 1-.62-.38 1.67 1.67 0 0 1-.4-.57 1.93 1.93 0 0 1-.14-.75 1.72 1.72 0 0 1 .58-1.32 2 2 0 0 1 .65-.38c.27-.09.56-.13.84-.13a2.27 2.27 0 0 1 .79.12c.21.08.41.2.58.34l-.18.22a.18.18 0 0 1-.05.04.13.13 0 0 1-.07.02.18.18 0 0 1-.08-.03l-.1-.06-.13-.07a1.55 1.55 0 0 0-.43-.13 1.9 1.9 0 0 0-.33-.03 1.76 1.76 0 0 0-.6.1 1.39 1.39 0 0 0-.48.28c-.13.13-.24.28-.3.45a1.5 1.5 0 0 0-.12.58 1.53 1.53 0 0 0 .11.6 1.24 1.24 0 0 0 .76.72c.18.06.37.1.56.1l.33-.03a1.32 1.32 0 0 0 .72-.3.17.17 0 0 1 .1-.04Zm6.3-1.05a1.81 1.81 0 0 1-.14.74 1.6 1.6 0 0 1-.41.57 1.89 1.89 0 0 1-.65.38 2.65 2.65 0 0 1-1.66 0 1.91 1.91 0 0 1-.64-.38 1.68 1.68 0 0 1-.41-.58 1.92 1.92 0 0 1 0-1.47 1.71 1.71 0 0 1 1.05-.95 2.61 2.61 0 0 1 1.66 0c.24.09.46.22.65.38a1.7 1.7 0 0 1 .55 1.31Zm-.57 0a1.57 1.57 0 0 0-.1-.59 1.22 1.22 0 0 0-.75-.72 1.92 1.92 0 0 0-1.2 0 1.3 1.3 0 0 0-.47.28 1.2 1.2 0 0 0-.3.44 1.74 1.74 0 0 0 0 1.19 1.2 1.2 0 0 0 .76.72c.39.12.82.12 1.2 0 .18-.07.34-.16.47-.28.13-.13.23-.28.29-.44.07-.2.1-.4.1-.6Zm4.87.63.06.13.06-.14a1.23 1.23 0 0 1 .07-.13l1.4-2.2.07-.07a.37.37 0 0 1 .12 0h.41v3.57h-.49V47.1a.94.94 0 0 1 0-.12l-1.4 2.23a.2.2 0 0 1-.08.08.25.25 0 0 1-.12.03h-.08a.24.24 0 0 1-.12-.03.2.2 0 0 1-.08-.08l-1.45-2.25v2.88h-.47v-3.58h.42a.37.37 0 0 1 .11.02c.03.01.06.03.08.06l1.42 2.2a.76.76 0 0 1 .07.14Zm5.24-.18v1.34h-.54v-3.58h1.22c.23 0 .45.03.68.08.17.05.34.12.48.22a.92.92 0 0 1 .27.35c.06.15.1.3.09.46a1 1 0 0 1-.4.82c-.13.1-.3.19-.48.23a2.3 2.3 0 0 1-.65.09l-.66-.01Zm0-.39h.66c.15 0 .29-.01.43-.05a.92.92 0 0 0 .3-.16.69.69 0 0 0 .25-.53.6.6 0 0 0-.05-.3.69.69 0 0 0-.2-.24 1.17 1.17 0 0 0-.73-.19h-.66v1.47Zm7.33 1.73h-.43a.2.2 0 0 1-.12-.03.22.22 0 0 1-.07-.08l-.37-.87h-1.86l-.39.87a.2.2 0 0 1-.19.11h-.43l1.64-3.58h.57l1.65 3.58Zm-2.7-1.33h1.54l-.65-1.45a2.46 2.46 0 0 1-.12-.34l-.06.19-.06.15-.65 1.45Zm5.06-2.23.08.06 2.39 2.7v-2.78h.48v3.58h-.27a.27.27 0 0 1-.11-.02.3.3 0 0 1-.09-.06l-2.38-2.7a.97.97 0 0 1 0 .12v2.66h-.49v-3.58h.3a.3.3 0 0 1 .09.02Zm6.97 2.14v1.42h-.54v-1.42l-1.51-2.16h.49a.2.2 0 0 1 .12.03l.07.09.94 1.39a2.29 2.29 0 0 1 .17.31l.07-.15.1-.16.92-1.4a.38.38 0 0 1 .07-.08.18.18 0 0 1 .12-.03h.5l-1.52 2.16Zm-22.17-8.16.72.06a19.95 19.95 0 0 0 8.95-6.73 16.12 16.12 0 0 0 3.18-9.9l-4.06-3.52c.83 3.73.44 7.58-1.11 11.13a20.96 20.96 0 0 1-7.68 8.96Z" fill="#AFB1B8"/><path d="m45.28 40.1.11.01c3.7-2.3 6.53-5.51 8.1-9.23a17.33 17.33 0 0 0 .76-11.59l-5.78-5.01a21.53 21.53 0 0 1 2.71 13.3 22.67 22.67 0 0 1-5.9 12.51Zm19.59-12.27a18.04 18.04 0 0 1-6.8 9.89 21.63 21.63 0 0 1-3.23 2.01c2.8-.71 5.37-1.97 7.51-3.68s3.8-3.83 4.86-6.2l-2.34-2.02Z" fill="#AFB1B8"/><path d="m63.95 27.26-3.34-2.9a16.76 16.76 0 0 1-3.13 9.35 20.38 20.38 0 0 1-8.16 6.67h.02a22 22 0 0 0 2.24-.11 20.61 20.61 0 0 0 8.07-5.15 16.95 16.95 0 0 0 4.3-7.86Zm-18.18-15.1L41.79 8.7A18.75 18.75 0 0 0 33 14.72 15 15 0 0 0 29.68 24a15.13 15.13 0 0 0 4.03 10.09 19.39 19.39 0 0 0 10.31 5.81 21.84 21.84 0 0 0 6.1-13.62 21.22 21.22 0 0 0-4.35-14.12Zm27.37 14.57c-.01-4.34-2-8.5-5.54-11.58a20.46 20.46 0 0 0-13.32-4.81 21.18 21.18 0 0 0-6.76 1.1l24.36 21.15a14.35 14.35 0 0 0 1.26-5.86Z" fill="#AFB1B8"/></svg>