<svg width="106" height="60" fill="none" xmlns="http://www.w3.org/2000/svg"><path d="M24.15 21.1c-2.4 0-4.35 1.73-4.35 3.86 0 2.14 1.95 3.86 4.34 3.86 2.4 0 4.35-1.72 4.35-3.86 0-2.13-1.95-3.86-4.34-3.86Zm32.05-1.23c-.01-2.96-1.34-5.8-3.7-7.9a13.43 13.43 0 0 0-8.87-3.27c-3.33 0-6.53 1.18-8.88 3.28a10.6 10.6 0 0 0-3.7 7.89v16.32S56.2 33.7 56.2 19.87ZM11 41.55c0 2.06.93 4.03 2.57 5.49a9.36 9.36 0 0 0 6.17 2.28c2.32 0 4.54-.82 6.18-2.28a7.38 7.38 0 0 0 2.57-5.49V30.2S11 31.93 11 41.55Zm8.74 2.03c-.45 0-.9-.12-1.27-.34a2.1 2.1 0 0 1-.84-.91 1.82 1.82 0 0 1-.13-1.18c.09-.4.3-.75.63-1.04.32-.28.72-.48 1.17-.56a2.56 2.56 0 0 1 1.32.12c.42.15.78.41 1.03.75s.38.73.38 1.13c0 .27-.05.53-.17.78a2.04 2.04 0 0 1-.5.66c-.2.2-.46.34-.74.45a2.54 2.54 0 0 1-.88.15Zm17.68-1.12h-1.69v1.75h-.88v-4.27h2.78v.71h-1.9v1.1h1.69v.71Zm4.22-.29c0 .42-.07.79-.22 1.1-.15.32-.36.56-.64.74a1.75 1.75 0 0 1-.95.26c-.35 0-.67-.09-.95-.26a1.7 1.7 0 0 1-.64-.73 2.51 2.51 0 0 1-.23-1.09V42c0-.43.07-.8.22-1.11a1.68 1.68 0 0 1 1.6-1c.35 0 .67.09.94.26.28.17.5.42.64.74.16.31.23.68.23 1.1v.19Zm-.89-.2c0-.44-.08-.78-.24-1.01a.78.78 0 0 0-.68-.35.78.78 0 0 0-.69.34c-.16.23-.24.57-.24 1.01v.21c0 .44.08.77.24 1.01.16.24.39.36.7.36a.78.78 0 0 0 .67-.34c.16-.23.24-.57.24-1.02v-.2Zm3.74 1.12a.45.45 0 0 0-.17-.38 2.22 2.22 0 0 0-.64-.28 4.58 4.58 0 0 1-.72-.3c-.48-.26-.73-.61-.73-1.06 0-.23.07-.43.2-.61s.31-.32.56-.43a2.13 2.13 0 0 1 1.63.02c.24.11.43.26.56.47.13.2.2.43.2.68h-.89c0-.2-.06-.35-.18-.45a.75.75 0 0 0-.52-.17.8.8 0 0 0-.5.14.43.43 0 0 0-.18.36c0 .14.07.25.21.35.14.09.35.18.62.26.5.15.86.34 1.1.56.22.22.33.5.33.83 0 .37-.13.66-.41.87-.28.21-.66.32-1.13.32-.33 0-.63-.06-.9-.18a1.44 1.44 0 0 1-.62-.5 1.27 1.27 0 0 1-.2-.73h.87c0 .47.28.71.85.71.2 0 .37-.04.49-.13a.42.42 0 0 0 .17-.35Zm4.7-2.44h-1.31v3.56H47v-3.56H45.7v-.7h3.47v.7Zm3.06 1.7h-1.68v1.15h1.98v.7h-2.86v-4.26h2.85v.71h-1.97v1.02h1.68v.69Zm2.4.3h-.7v1.56h-.89v-4.27h1.59c.5 0 .89.11 1.16.34.28.22.41.54.41.95 0 .29-.06.53-.19.73a1.28 1.28 0 0 1-.57.46l.92 1.74v.05h-.94l-.8-1.57Zm-.7-.72h.7c.22 0 .4-.05.51-.16a.6.6 0 0 0 .18-.47c0-.2-.05-.36-.17-.47-.11-.12-.29-.18-.52-.18h-.7v1.28Zm5.32.77v1.5h-.88v-4.26h1.66c.32 0 .6.06.85.18.24.11.43.28.56.5.13.21.2.46.2.73 0 .42-.15.75-.43 1a1.8 1.8 0 0 1-1.2.35h-.76Zm0-.7h.78c.23 0 .41-.06.53-.17.13-.11.19-.27.19-.47a.7.7 0 0 0-.19-.5.7.7 0 0 0-.5-.2h-.81v1.33Zm5.56.36h-1.69v1.14h1.98v.7h-2.86v-4.26h2.86v.71h-1.98v1.02h1.69v.69Zm4.08-1.7H67.6v3.55h-.88v-3.56h-1.29v-.7h3.48v.7Zm3.07 1.7h-1.69v1.14h1.98v.7h-2.86v-4.26h2.85v.71H70.3v1.02h1.69v.69Zm2.38.28h-.7v1.57h-.88v-4.27h1.59c.5 0 .9.11 1.17.34.27.22.4.54.4.95 0 .29-.06.53-.18.73a1.28 1.28 0 0 1-.58.46l.93 1.74v.05h-.95l-.8-1.57Zm-.7-.7h.71c.22 0 .4-.06.51-.17a.6.6 0 0 0 .19-.47c0-.2-.06-.36-.18-.47-.1-.12-.28-.18-.52-.18h-.7v1.28Zm5.17 1.15a.45.45 0 0 0-.18-.38 2.22 2.22 0 0 0-.63-.28 4.57 4.57 0 0 1-.72-.3c-.49-.26-.73-.61-.73-1.06 0-.23.07-.43.2-.61.12-.18.31-.32.55-.43a2.13 2.13 0 0 1 1.64.02c.24.11.42.26.55.47.13.2.2.43.2.68h-.88c0-.2-.06-.35-.18-.45a.75.75 0 0 0-.52-.17.8.8 0 0 0-.5.14.43.43 0 0 0-.18.36c0 .14.07.25.2.35.15.09.35.18.62.26.5.15.87.34 1.1.56.23.22.34.5.34.83 0 .37-.14.66-.42.87-.28.21-.65.32-1.13.32-.32 0-.62-.06-.9-.18a1.44 1.44 0 0 1-.61-.5 1.27 1.27 0 0 1-.21-.73h.88c0 .47.28.71.84.71.21 0 .38-.04.5-.13a.42.42 0 0 0 .17-.35Z" fill="#AFB1B8"/></svg>