<svg width="106" height="60" fill="none" xmlns="http://www.w3.org/2000/svg"><path fill-rule="evenodd" clip-rule="evenodd" d="M50.11 5.93h-.13l-.63-.02h-.46l-1.2.03a.63.63 0 0 0-.1 0 28.27 28.27 0 0 0-10.51 2.68l-.43.21v22.14l1.01-.34c.89-.3 1.83-.58 2.81-.83a34.33 34.33 0 0 1 8.1-1.08v2.91c-.36 0-.72.01-1.07.03h-.08a32.36 32.36 0 0 0-6.23.96 31.64 31.64 0 0 0-7.42 2.89V7.1a29.73 29.73 0 0 1 7.79-3.16A29.8 29.8 0 0 1 48.89 3h.43a21.11 21.11 0 0 1 5.13.65v2.87a22.62 22.62 0 0 0-3.54-.54h-.07c-.25-.02-.5-.05-.73-.05Zm5.04 2.93c.64.05 1.3.07 1.96.07a31.47 31.47 0 0 0 7.71-.99 31.78 31.78 0 0 0 7.42-2.89v27.89a29.82 29.82 0 0 1-7.79 3.17 29.94 29.94 0 0 1-7.33.94 22.4 22.4 0 0 1-5.57-.66V8.32a22.1 22.1 0 0 0 3.6.54Zm14.2.22-1.02.34c-.93.31-1.87.6-2.8.84a34.26 34.26 0 0 1-8.41 1.08c-.66 0-1.27-.02-1.86-.06l-.8-.05V34l.69.06c.64.05 1.3.08 1.97.08a26.88 26.88 0 0 0 6.62-.86 27.76 27.76 0 0 0 5.17-1.86l.44-.2V9.08Z" fill="#AFB1B8"/><path d="M35.74 45.21a1.5 1.5 0 0 0-1.13-.45 1.67 1.67 0 0 0-.65.12 1.46 1.46 0 0 0-.83.84c-.08.2-.12.41-.12.63v3.8c0 .26.05.53.15.77a1.34 1.34 0 0 0 .9.78c.19.05.38.08.57.08.21 0 .42-.04.61-.13a1.6 1.6 0 0 0 .96-1.47v-.42h-1v.34a.88.88 0 0 1-.05.33.6.6 0 0 1-.14.22.7.7 0 0 1-.42.14.5.5 0 0 1-.46-.2.9.9 0 0 1-.14-.51v-3.54c0-.2.04-.39.13-.56a.5.5 0 0 1 .48-.23.53.53 0 0 1 .44.21.8.8 0 0 1 .17.5v.34h.98v-.39a1.79 1.79 0 0 0-.12-.66 1.56 1.56 0 0 0-.33-.54Zm5.89-.04a1.76 1.76 0 0 0-1.13-.42c-.2 0-.4.04-.6.1a1.56 1.56 0 0 0-.9.85c-.1.23-.15.48-.14.73v3.64c-.01.26.04.51.14.75.09.2.22.37.38.5.16.15.33.26.53.33.19.07.39.1.59.1a1.71 1.71 0 0 0 1.13-.42 1.56 1.56 0 0 0 .52-1.26v-3.64a1.77 1.77 0 0 0-.15-.73 1.64 1.64 0 0 0-.37-.53Zm-.46 4.9a.66.66 0 0 1-.2.53.73.73 0 0 1-.94 0 .65.65 0 0 1-.2-.53v-3.64a.65.65 0 0 1 .2-.52.73.73 0 0 1 .94 0 .65.65 0 0 1 .2.52v3.64Zm8.2 1.63v-6.89h-.96l-1.25 3.65h-.02l-1.26-3.65h-.94v6.89h.98v-4.2h.02l.96 2.97h.5l.96-2.96h.02v4.19h.99Zm5.59-6.4c-.15-.18-.35-.3-.56-.38a2.18 2.18 0 0 0-.71-.11h-1.46v6.89h.98V49h.5c.31.02.61-.04.89-.18a1.43 1.43 0 0 0 .54-.53c.11-.18.19-.38.22-.6a4.9 4.9 0 0 0 .06-.78c0-.33-.03-.66-.1-.98a1.47 1.47 0 0 0-.36-.64Zm-.5 2.1a.87.87 0 0 1-.1.35.55.55 0 0 1-.25.24 1 1 0 0 1-.47.1h-.44v-2.35h.5a.94.94 0 0 1 .45.09.56.56 0 0 1 .23.25 1 1 0 0 1 .08.38V47.4Zm5.15-2.59h-.8l-1.53 6.89h.99l.28-1.48h1.34l.3 1.48h.97l-1.55-6.89Zm-.9 4.47.47-2.5h.02l.48 2.5h-.98Zm7.24-.32h-.02l-1.48-4.15h-.94v6.89h.98v-4.14h.02L66 51.7h.92V44.8h-.98v4.15Zm6-4.15-.8 2.74h-.01l-.8-2.74h-1.03l1.35 3.98v2.9h.98v-2.9l1.35-3.98h-1.04ZM33 53.65h.47v1.32h.32v-1.33h.47v-.27H33v.28Zm3.98-.28-.62 1.6h.34l.13-.36h.64l.13.36h.35l-.63-1.6h-.34Zm-.05.97.21-.6.22.6h-.43Zm3.98.04h.37v.2a.61.61 0 0 1-.38.14.4.4 0 0 1-.34-.15.67.67 0 0 1-.12-.42c0-.35.15-.53.46-.53a.34.34 0 0 1 .36.25l.32-.06c-.07-.31-.3-.47-.68-.47a.8.8 0 0 0-.56.2.78.78 0 0 0-.23.62.87.87 0 0 0 .2.6.78.78 0 0 0 .61.24.96.96 0 0 0 .68-.26v-.63h-.7v.27Zm4.01-1h-.32v1.6h1.12v-.28h-.8v-1.33Zm3.4 0h-.33v1.6h.33v-1.6Zm3.32 1.06-.66-1.07h-.31v1.6h.3v-1.04l.64 1.04h.32v-1.6h-.3v1.07Zm3-.17h.8v-.28h-.8v-.34h.85v-.28h-1.18v1.6h1.22v-.27h-.9v-.43ZM61.9 54h-.63v-.63h-.32v1.6h.32v-.7h.63v.7h.32v-1.6h-.32V54Zm3.02.27h.8v-.28h-.8v-.34h.86v-.28h-1.18v1.6h1.21v-.27h-.89v-.43Zm4.1 0c.27-.05.41-.2.41-.45a.38.38 0 0 0-.15-.35.9.9 0 0 0-.47-.1h-.68v1.6h.32v-.67h.07a.43.43 0 0 1 .2.04c.04.03.08.07.1.12l.36.5h.38l-.2-.3a1.11 1.11 0 0 0-.35-.4Zm-.33-.22h-.24v-.4h.26a.84.84 0 0 1 .32.03.21.21 0 0 1-.01.33.91.91 0 0 1-.33.04Zm3.41.22h.8v-.28h-.8v-.34h.86v-.28h-1.18v1.6H73v-.27h-.89v-.43Z" fill="#AFB1B8"/></svg>